<?xml version="1.0" encoding="UTF-8"?>
<svg viewBox="0 0 78 26" version="1.1">

 <g transform="translate(.44527)">
  <g fill="none" stroke="black" stroke-width="3">
   <path class="icon-stroke" d="m9 1-7 10 7 12"/>
   <path class="icon-stroke" transform="translate(-7.9036 .10707)" d="m75 1 8 10-8 12"/>
   <path class="icon-stroke" transform="translate(-8.4926 .17677)" d="m72 1-4 22"/>
  </g>
  <g aria-label="Artho">
   <path class="icon-fill" d="m17.869 11.642v0.35807h-4.6406v-0.35807q0.67318 0 0.90234-0.10026 0.24349-0.11458 0.24349-0.45834 0-0.27214-0.24349-0.91667-0.10026-0.27214-0.41536-0.98828h-3.2227q-0.3151 0.81641-0.47266 1.2604-0.15755 0.44401-0.15755 0.58724 0 0.3724 0.40104 0.51563 0.27214 0.10026 0.77344 0.10026v0.35807h-2.9076v-0.35807q0.54427-0.08594 0.83073-0.47266 0.20052-0.27214 0.57292-1.2031l3.1797-7.849h0.40104l3.194 7.5339q0.51563 1.2318 0.75912 1.5612 0.3151 0.42969 0.80208 0.42969zm-7.1615-3.0221h2.793l-1.4466-3.4805z"/>
   <path class="icon-fill" d="m22.566 11.656v0.34375h-3.8099v-0.34375q0.42969-0.08594 0.5586-0.1862 0.21484-0.1862 0.21484-0.67318v-4.2109q0-0.5013-0.21484-0.67318-0.14323-0.11458-0.5586-0.17188v-0.34375h2.707v1.1315q0.41537-0.5586 0.71615-0.81641 0.57292-0.48698 1.1888-0.48698 0.64453 0 0.95964 0.42969 0.22917 0.30078 0.22917 0.6875 0 0.35807-0.1862 0.61589-0.24349 0.34375-0.73047 0.34375-0.45834 0-0.8737-0.57292-0.20052-0.27214-0.40104-0.27214-0.35807 0-0.63021 0.45833-0.21484 0.3724-0.21484 0.90235v2.707q0 0.67318 0.20052 0.90235 0.20052 0.22917 0.84505 0.22917z"/>
   <path class="icon-fill" d="m29.069 5.3971v0.63021h-1.3464v4.3112q0 0.34375 0.05729 0.48698 0.12891 0.32943 0.5013 0.32943 0.22917 0 0.40104-0.14323 0.17188-0.14323 0.41536-0.60156l0.35807 0.15755q-0.34375 0.70182-0.67318 1.0313-0.57292 0.57292-1.4323 0.57292-0.98828 0-1.3893-0.63021-0.22917-0.3724-0.22917-0.8737v-4.6406h-0.74479v-0.38672q0.64453-0.54427 1.1029-1.0456 0.58724-0.64453 1.2747-1.6185h0.35807v2.4206z"/>
   <path class="icon-fill" d="m37.133 11.656v0.34375h-3.3659v-0.34375q0.67318-0.05729 0.67318-0.81641v-3.4662q0-0.5013-0.10026-0.74479-0.1862-0.44401-0.6875-0.44401-0.3724 0-0.78776 0.34375-0.40104 0.34375-0.40104 0.48698v3.8242q0 0.32943 0.10026 0.5013 0.15755 0.27214 0.60156 0.3151v0.34375h-3.4518v-0.34375q0.44401-0.08594 0.57292-0.20052 0.1862-0.17188 0.1862-0.65886v-7.3047q0-0.47266-0.14323-0.60156-0.14323-0.12891-0.61589-0.22917v-0.34375h2.75v4.0247q0.51563-0.60156 1.0026-0.85938 0.48698-0.25781 1.0456-0.25781 0.73047 0 1.2461 0.41537 0.67318 0.54427 0.67318 1.6042v3.5521q0 0.32943 0.08594 0.51563 0.15755 0.34375 0.61589 0.34375z"/>
   <path class="icon-fill" d="m39.912 8.72q0 1.5182 0.14323 2.0912 0.24349 0.94532 1.0026 0.94532 0.67318 0 0.91667-0.83073 0.1862-0.64453 0.1862-2.2057 0-1.6901-0.24349-2.3633-0.22917-0.6875-0.8737-0.6875-0.71615 0-0.95964 0.90235-0.17188 0.64453-0.17188 2.1484zm-2.1055 0q0-1.4323 0.88802-2.4635 0.90235-1.0313 2.349-1.0313 1.4036 0 2.306 1.0026 0.91667 0.98828 0.91667 2.4922 0 1.4609-0.90235 2.4779-0.88802 1.0026-2.3203 1.0026-1.4609 0-2.349-1.0026-0.88802-1.0169-0.88802-2.4779z"/>
  </g>
  <g aria-label="Petry">
   <path class="icon-fill" d="m25.179 22.142v-0.35807q0.52995-0.08594 0.63021-0.11458 0.11458-0.02865 0.20052-0.08594 0.22917-0.17188 0.30078-0.41536 0.07162-0.25781 0.07162-0.70182v-6.3307q0-0.81641-0.3151-1.0742-0.21484-0.1862-0.88802-0.24349v-0.35807h4.612q1.4036 0 2.306 0.40104 1.4466 0.64453 1.4466 2.2344 0 0.54427-0.21484 1.0169-0.32943 0.71615-1.0885 1.1458-0.63021 0.35807-1.3464 0.45834-0.70182 0.08594-2.1914 0.08594v2.6641q0 0.81641 0.25781 1.0456 0.1862 0.17188 1.0026 0.27214v0.35807zm3.5234-8.6797v3.8386q1.3464 0 1.8333-0.41536 0.54427-0.45834 0.54427-1.7474 0-1.2031-0.40104-1.6901-0.38672-0.48698-1.2891-0.48698-0.6875 0-0.6875 0.5013z"/>
   <path class="icon-fill" d="m36.064 18.103h1.9193q0-0.5586-0.02865-0.91667-0.01432-0.3724-0.10026-0.6875-0.08594-0.3151-0.22917-0.47266-0.20052-0.21484-0.54427-0.21484-0.47266 0-0.70182 0.40104-0.3151 0.54427-0.3151 1.8906zm3.4089 2.2487 0.34375 0.20052q-0.64453 0.98828-1.3034 1.3893-0.64453 0.40104-1.5326 0.40104-1.1888 0-1.9909-0.83073-0.91667-0.95964-0.91667-2.6784 0-1.5469 0.84505-2.5065 0.84505-0.95964 2.1055-0.95964t1.9479 0.81641q0.77344 0.91667 0.77344 2.4492h-3.6094q0 1.1029 0.34375 1.7904 0.44401 0.88802 1.375 0.88802 0.42969 0 0.78776-0.20052 0.3724-0.21484 0.83073-0.75912z"/>
   <path class="icon-fill" d="m44.443 15.539v0.63021h-1.3464v4.3112q0 0.34375 0.05729 0.48698 0.12891 0.32943 0.5013 0.32943 0.22917 0 0.40104-0.14323 0.17188-0.14323 0.41536-0.60156l0.35807 0.15755q-0.34375 0.70182-0.67318 1.0313-0.57292 0.57292-1.4323 0.57292-0.98828 0-1.3893-0.63021-0.22917-0.3724-0.22917-0.8737v-4.6406h-0.74479v-0.38672q0.64453-0.54427 1.1029-1.0456 0.58724-0.64453 1.2747-1.6185h0.35807v2.4206z"/>
   <path class="icon-fill" d="m49.084 21.798v0.34375h-3.8099v-0.34375q0.42969-0.08594 0.5586-0.1862 0.21484-0.1862 0.21484-0.67318v-4.2109q0-0.5013-0.21484-0.67318-0.14323-0.11458-0.5586-0.17188v-0.34375h2.707v1.1315q0.41536-0.5586 0.71615-0.81641 0.57292-0.48698 1.1888-0.48698 0.64453 0 0.95964 0.42969 0.22917 0.30078 0.22917 0.6875 0 0.35807-0.1862 0.61589-0.24349 0.34375-0.73047 0.34375-0.45833 0-0.8737-0.57292-0.20052-0.27214-0.40104-0.27214-0.35807 0-0.63021 0.45833-0.21484 0.3724-0.21484 0.90235v2.707q0 0.67318 0.20052 0.90235t0.84505 0.22917z"/>
   <path class="icon-fill" d="m58.093 15.539v0.34375q-0.3151 0.04297-0.42969 0.12891-0.21484 0.15755-0.40104 0.65886l-2.1341 5.6862q-0.48698 1.2891-0.70182 1.6901-0.5586 1.0313-1.6615 1.0313-0.63021 0-1.0026-0.38672-0.3151-0.32943-0.3151-0.73047 0-0.30078 0.14323-0.52995 0.24349-0.40104 0.80208-0.40104 0.44401 0 0.64453 0.25781 0.15755 0.20052 0.15755 0.47266-0.04297 0.20052-0.04297 0.25781 0 0.24349 0.24349 0.24349 0.3151 0 0.61589-0.45834 0.20052-0.30078 0.32943-0.71615l0.25781-0.75912-1.7188-4.2253q-0.20052-0.51563-0.5013-1.1458-0.17188-0.3724-0.3151-0.63021-0.12891-0.27214-0.24349-0.32943-0.10026-0.071615-0.3724-0.11458v-0.34375h3.5807v0.34375q-0.45834 0-0.61589 0.10026-0.14323 0.08594-0.14323 0.28646 0 0.12891 0.11458 0.42969 0.12891 0.28646 0.17188 0.40104l1.0313 2.6497 0.97396-2.75q0.11458-0.3151 0.12891-0.40104 0.02865-0.08594 0.02865-0.24349 0-0.30078-0.21484-0.38672-0.21484-0.08594-0.57292-0.08594v-0.34375z"/>
  </g>
 </g>
</svg>
